<svg width="106" height="32" viewBox="0 0 106 32" fill="none" xmlns="http://www.w3.org/2000/svg">
<g filter="url(#filter0_d_9_4)">
<path d="M31 29.28V31H1V29.28H9.68C7.54667 28.0267 5.86667 26.3333 4.64 24.2C3.44 22.04 2.84 19.6 2.84 16.88C2.84 12.7733 4.25333 9.33333 7.08 6.56C9.93333 3.78667 13.36 2.4 17.36 2.4C21.3867 2.4 24.88 3.72 27.84 6.36L24.6 11.04C23.3467 9.94667 22.1867 9.2 21.12 8.8C20.08 8.37333 18.9467 8.16 17.72 8.16C15.3467 8.16 13.3467 8.97333 11.72 10.6C10.0933 12.2 9.28 14.32 9.28 16.96C9.28 19.6 10.0533 21.72 11.6 23.32C13.1733 24.8933 15.04 25.68 17.2 25.68C19.36 25.68 21.16 25.2667 22.6 24.44V16.76H28.88V26.68C27.9733 27.6933 26.8933 28.56 25.64 29.28H31Z" fill="#0D5FFF"/>
<path d="M31.55 31L35.05 13.55H45.975L45.325 16.75H38.025L37.25 20.575H43.675L43.025 23.775H36.6L35.175 31H31.55ZM49.966 16.425C49.3493 16.425 48.891 16.3083 48.591 16.075C48.3077 15.8417 48.166 15.525 48.166 15.125C48.166 14.975 48.1827 14.8083 48.216 14.625C48.2493 14.4417 48.2827 14.275 48.316 14.125C48.366 13.9083 48.441 13.6917 48.541 13.475C48.641 13.2583 48.7827 13.0667 48.966 12.9C49.1493 12.7333 49.3827 12.6 49.666 12.5C49.9493 12.3833 50.2993 12.325 50.716 12.325C51.3327 12.325 51.7827 12.4417 52.066 12.675C52.366 12.9083 52.516 13.225 52.516 13.625C52.516 13.775 52.4993 13.9417 52.466 14.125C52.4327 14.3083 52.3993 14.475 52.366 14.625C52.316 14.8417 52.241 15.0583 52.141 15.275C52.041 15.4917 51.8993 15.6833 51.716 15.85C51.5327 16.0167 51.2993 16.1583 51.016 16.275C50.7327 16.375 50.3827 16.425 49.966 16.425ZM47.966 31C47.2827 31 46.7327 30.8167 46.316 30.45C45.916 30.0833 45.716 29.6 45.716 29C45.716 28.8333 45.741 28.625 45.791 28.375L47.891 17.875H51.391L49.316 28.2H50.791L50.241 31H47.966ZM52.2973 31L54.9223 17.875H58.4223L57.8223 20.925H57.9723C58.4723 19.875 59.0639 19.0583 59.7473 18.475C60.4306 17.875 61.2889 17.575 62.3223 17.575C63.3389 17.575 64.1139 17.875 64.6473 18.475C65.1973 19.0583 65.4723 19.8917 65.4723 20.975C65.4723 21.2917 65.4473 21.6 65.3973 21.9C65.3639 22.1833 65.3139 22.4917 65.2473 22.825L64.1723 28.2H65.4973L64.9473 31H62.6723C62.0056 31 61.4889 30.8333 61.1223 30.5C60.7556 30.15 60.5723 29.6833 60.5723 29.1C60.5723 28.95 60.5806 28.8167 60.5973 28.7C60.6139 28.5667 60.6306 28.4667 60.6473 28.4L61.6723 23.2C61.7223 22.9667 61.7639 22.7417 61.7973 22.525C61.8306 22.2917 61.8473 22.05 61.8473 21.8C61.8473 21.4167 61.7473 21.1083 61.5473 20.875C61.3473 20.625 61.0056 20.5 60.5223 20.5C60.0889 20.5 59.6973 20.6167 59.3473 20.85C58.9973 21.0833 58.6806 21.3667 58.3973 21.7C58.0973 22.05 57.8389 22.4417 57.6223 22.875C57.4056 23.2917 57.2473 23.75 57.1473 24.25L55.7973 31H52.2973ZM77.3945 31C76.7612 31 76.2362 30.8333 75.8195 30.5C75.4029 30.1667 75.1945 29.6917 75.1945 29.075C75.1945 28.9417 75.2029 28.8 75.2195 28.65C75.2362 28.5 75.2529 28.3917 75.2695 28.325L75.3445 27.95H75.1945C74.6779 29.0167 74.0945 29.8417 73.4445 30.425C72.7945 31.0083 71.9529 31.3 70.9195 31.3C70.3029 31.3 69.7695 31.1917 69.3195 30.975C68.8862 30.7417 68.5279 30.425 68.2445 30.025C67.9612 29.6083 67.7529 29.125 67.6195 28.575C67.4862 28.0083 67.4195 27.4 67.4195 26.75C67.4195 25.35 67.5779 24.0917 67.8945 22.975C68.2279 21.8417 68.6695 20.875 69.2195 20.075C69.7695 19.275 70.4112 18.6583 71.1445 18.225C71.8945 17.7917 72.6862 17.575 73.5195 17.575C74.4362 17.575 75.1862 17.825 75.7695 18.325C76.3695 18.825 76.7112 19.4333 76.7945 20.15H76.9195L78.4445 12.5H81.9445L78.7945 28.2H80.2695L79.7195 31H77.3945ZM72.6445 28.425C73.0945 28.425 73.5029 28.3083 73.8695 28.075C74.2362 27.8417 74.5529 27.5583 74.8195 27.225C75.1029 26.8917 75.3445 26.5 75.5445 26.05C75.7612 25.5833 75.9195 25.1083 76.0195 24.625L76.4195 22.625C76.5529 21.9583 76.4279 21.4333 76.0445 21.05C75.6612 20.65 75.1029 20.45 74.3695 20.45C72.8529 20.45 71.8945 21.425 71.4945 23.375L71.1445 25.125C71.1112 25.3083 71.0779 25.5417 71.0445 25.825C71.0112 26.1083 70.9945 26.35 70.9945 26.55C70.9945 27.1333 71.1362 27.5917 71.4195 27.925C71.7195 28.2583 72.1279 28.425 72.6445 28.425ZM87.74 31.3C85.8734 31.3 84.4817 30.8 83.565 29.8C82.6484 28.7833 82.19 27.4 82.19 25.65C82.19 24.6 82.3567 23.5917 82.69 22.625C83.0234 21.6417 83.4984 20.7833 84.115 20.05C84.7317 19.3 85.4817 18.7 86.365 18.25C87.2484 17.8 88.2317 17.575 89.315 17.575C89.815 17.575 90.34 17.6333 90.89 17.75C91.44 17.8667 91.94 18.0667 92.39 18.35C92.8567 18.6167 93.24 18.9833 93.54 19.45C93.8567 19.9167 94.015 20.5083 94.015 21.225C94.015 21.9083 93.8567 22.525 93.54 23.075C93.2234 23.6083 92.7317 24.075 92.065 24.475C91.3984 24.8583 90.54 25.1667 89.49 25.4C88.44 25.6167 87.1817 25.75 85.715 25.8C85.6817 25.95 85.665 26.0667 85.665 26.15C85.665 26.2333 85.665 26.3083 85.665 26.375C85.665 27.0083 85.8317 27.5167 86.165 27.9C86.515 28.2833 87.1234 28.475 87.99 28.475C88.5567 28.475 89.0817 28.3583 89.565 28.125C90.065 27.875 90.6067 27.3833 91.19 26.65L93.34 28.35C92.5234 29.4333 91.665 30.2 90.765 30.65C89.8817 31.0833 88.8734 31.3 87.74 31.3ZM89.115 20.25C88.365 20.25 87.7234 20.5 87.19 21C86.6734 21.4833 86.34 22.15 86.19 23L86.09 23.575C87.0234 23.525 87.7817 23.4417 88.365 23.325C88.965 23.2083 89.4317 23.0667 89.765 22.9C90.0984 22.7167 90.3234 22.5167 90.44 22.3C90.5567 22.0833 90.615 21.8417 90.615 21.575C90.615 21.2917 90.565 21.0667 90.465 20.9C90.365 20.7167 90.24 20.5833 90.09 20.5C89.94 20.4 89.7734 20.3333 89.59 20.3C89.4234 20.2667 89.265 20.25 89.115 20.25ZM94.6313 31L97.2563 17.875H100.756L100.106 21.15H100.281C100.415 20.8 100.598 20.4333 100.831 20.05C101.081 19.65 101.365 19.2917 101.681 18.975C102.015 18.6583 102.39 18.4 102.806 18.2C103.24 17.9833 103.706 17.875 104.206 17.875H104.831L104.131 21.275H103.256C102.14 21.275 101.29 21.4833 100.706 21.9C100.123 22.3 99.7229 23.0333 99.5063 24.1L98.1313 31H94.6313Z" fill="black"/>
</g>
<defs>
<filter id="filter0_d_9_4" x="0" y="0.400002" width="105.831" height="30.9" filterUnits="userSpaceOnUse" color-interpolation-filters="sRGB">
<feFlood flood-opacity="0" result="BackgroundImageFix"/>
<feColorMatrix in="SourceAlpha" type="matrix" values="0 0 0 0 0 0 0 0 0 0 0 0 0 0 0 0 0 0 127 0" result="hardAlpha"/>
<feOffset dy="-1"/>
<feGaussianBlur stdDeviation="0.5"/>
<feComposite in2="hardAlpha" operator="out"/>
<feColorMatrix type="matrix" values="0 0 0 0 0 0 0 0 0 0 0 0 0 0 0 0 0 0 0.15 0"/>
<feBlend mode="normal" in2="BackgroundImageFix" result="effect1_dropShadow_9_4"/>
<feBlend mode="normal" in="SourceGraphic" in2="effect1_dropShadow_9_4" result="shape"/>
</filter>
</defs>
</svg>
